<svg viewBox="0 0 195 23" fill="none" xmlns="http://www.w3.org/2000/svg">
<path d="M10.63 10.09L18.88 22H12.88L7.24003 13.93L5.50002 15.91V22H0.400024V0.700024H5.50002V8.44003L12.31 0.700024H18.88L10.63 10.09Z" fill="black"/>
<path d="M33.1652 15.97H23.0852C23.1252 16.43 23.3652 16.85 23.8052 17.23C24.2452 17.61 24.9352 17.8 25.8752 17.8C26.4552 17.8 26.9652 17.69 27.4052 17.47C27.8652 17.23 28.2352 16.93 28.5152 16.57L32.9552 17.02C32.8352 17.76 32.4852 18.54 31.9052 19.36C31.3252 20.18 30.5152 20.88 29.4752 21.46C28.4352 22.02 27.2252 22.3 25.8452 22.3C24.2852 22.3 22.9052 21.94 21.7052 21.22C20.5252 20.48 19.6052 19.51 18.9452 18.31C18.3052 17.09 17.9852 15.76 17.9852 14.32C17.9852 12.9 18.2952 11.6 18.9152 10.42C19.5352 9.24002 20.4152 8.30002 21.5552 7.60002C22.7152 6.88002 24.0552 6.52002 25.5752 6.52002C27.0952 6.52002 28.4252 6.89002 29.5652 7.63002C30.7252 8.35002 31.6152 9.33002 32.2352 10.57C32.8552 11.79 33.1652 13.15 33.1652 14.65V15.97ZM28.0652 12.52C28.0252 12.1 27.7752 11.75 27.3152 11.47C26.8752 11.17 26.2952 11.02 25.5752 11.02C24.8552 11.02 24.2652 11.17 23.8052 11.47C23.3652 11.75 23.1252 12.1 23.0852 12.52H28.0652Z" fill="black"/>
<path d="M51.8439 6.82002L45.4539 22H39.5439L33.1539 6.82002H38.8539L42.5139 16.54L46.1439 6.82002H51.8439Z" fill="black"/>
<path d="M58.1324 22H53.0324V6.82002H58.1324V22ZM55.5824 5.20003C54.9024 5.20003 54.3324 4.97003 53.8724 4.51003C53.4124 4.05003 53.1824 3.48002 53.1824 2.80002C53.1824 2.12002 53.4124 1.55002 53.8724 1.09002C54.3324 0.630024 54.9024 0.400024 55.5824 0.400024C56.2624 0.400024 56.8324 0.630024 57.2924 1.09002C57.7524 1.55002 57.9824 2.12002 57.9824 2.80002C57.9824 3.48002 57.7524 4.05003 57.2924 4.51003C56.8324 4.97003 56.2624 5.20003 55.5824 5.20003Z" fill="black"/>
<path d="M70.5813 6.52002C72.4413 6.52002 73.8213 7.08002 74.7213 8.20003C75.6213 9.30002 76.0713 10.88 76.0713 12.94V22H70.9713V15.4C70.9713 13.86 70.7713 12.8 70.3713 12.22C69.9713 11.62 69.3413 11.32 68.4813 11.32C67.6013 11.32 66.8513 11.61 66.2313 12.19C65.6313 12.75 65.3313 13.72 65.3313 15.1V22H60.2313V6.82002H65.0313L65.3313 8.65002C67.0313 7.23002 68.7813 6.52002 70.5813 6.52002Z" fill="black"/>
<path d="M87.1774 0.700024H92.2774V22H87.1774V0.700024Z" fill="black"/>
<path d="M94.0692 14.41C94.0692 12.95 94.3592 11.62 94.9392 10.42C95.5192 9.22002 96.3392 8.27002 97.3992 7.57002C98.4592 6.87002 99.6992 6.52002 101.119 6.52002C102.339 6.52002 103.369 6.80002 104.209 7.36002C105.069 7.90002 105.669 8.59002 106.009 9.43002L106.309 6.82002H111.109V22H106.309L106.009 19.39C105.669 20.23 105.069 20.93 104.209 21.49C103.369 22.03 102.339 22.3 101.119 22.3C99.6992 22.3 98.4592 21.95 97.3992 21.25C96.3392 20.55 95.5192 19.6 94.9392 18.4C94.3592 17.2 94.0692 15.87 94.0692 14.41ZM99.1692 14.41C99.1692 15.27 99.4592 16 100.039 16.6C100.619 17.2 101.379 17.5 102.319 17.5C103.259 17.5 104.009 17.2 104.569 16.6C105.129 16 105.409 15.27 105.409 14.41C105.409 13.55 105.129 12.82 104.569 12.22C104.009 11.62 103.259 11.32 102.319 11.32C101.379 11.32 100.619 11.62 100.039 12.22C99.4592 12.82 99.1692 13.55 99.1692 14.41Z" fill="black"/>
<path d="M124.286 11.62H120.596V22H115.496V11.62H112.886V6.82002H115.496V2.32002H120.596V6.82002H124.286V11.62Z" fill="black"/>
<path d="M124.889 14.41C124.889 12.95 125.179 11.62 125.759 10.42C126.339 9.22002 127.159 8.27002 128.219 7.57002C129.279 6.87002 130.519 6.52002 131.939 6.52002C133.159 6.52002 134.189 6.80002 135.029 7.36002C135.889 7.90002 136.489 8.59002 136.829 9.43002L137.129 6.82002H141.929V22H137.129L136.829 19.39C136.489 20.23 135.889 20.93 135.029 21.49C134.189 22.03 133.159 22.3 131.939 22.3C130.519 22.3 129.279 21.95 128.219 21.25C127.159 20.55 126.339 19.6 125.759 18.4C125.179 17.2 124.889 15.87 124.889 14.41ZM129.989 14.41C129.989 15.27 130.279 16 130.859 16.6C131.439 17.2 132.199 17.5 133.139 17.5C134.079 17.5 134.829 17.2 135.389 16.6C135.949 16 136.229 15.27 136.229 14.41C136.229 13.55 135.949 12.82 135.389 12.22C134.829 11.62 134.079 11.32 133.139 11.32C132.199 11.32 131.439 11.62 130.859 12.22C130.279 12.82 129.989 13.55 129.989 14.41Z" fill="black"/>
<path d="M160.153 6.82002V22H155.353L155.053 20.17C153.353 21.59 151.603 22.3 149.803 22.3C147.943 22.3 146.563 21.75 145.663 20.65C144.763 19.53 144.313 17.94 144.313 15.88V6.82002H149.413V13.42C149.413 14.96 149.613 16.03 150.013 16.63C150.413 17.21 151.043 17.5 151.903 17.5C152.783 17.5 153.523 17.22 154.123 16.66C154.743 16.08 155.053 15.1 155.053 13.72V6.82002H160.153Z" fill="black"/>
<path d="M170.665 6.52002C171.025 6.52002 171.355 6.58002 171.655 6.70002C171.975 6.82002 172.225 6.97002 172.405 7.15002L171.745 11.62C171.585 11.54 171.365 11.47 171.085 11.41C170.825 11.35 170.575 11.32 170.335 11.32C168.555 11.32 167.665 12.98 167.665 16.3V22H162.565V6.82002H167.365L167.665 8.62003C168.505 7.22003 169.505 6.52002 170.665 6.52002Z" fill="black"/>
<path d="M180.952 22.3C179.332 22.3 177.892 21.95 176.632 21.25C175.392 20.55 174.422 19.6 173.722 18.4C173.042 17.18 172.702 15.85 172.702 14.41C172.702 12.97 173.042 11.65 173.722 10.45C174.422 9.23002 175.392 8.27002 176.632 7.57002C177.892 6.87002 179.332 6.52002 180.952 6.52002C182.552 6.52002 183.972 6.87002 185.212 7.57002C186.472 8.27002 187.442 9.22002 188.122 10.42C188.802 11.62 189.142 12.95 189.142 14.41C189.142 15.87 188.802 17.2 188.122 18.4C187.442 19.6 186.472 20.55 185.212 21.25C183.972 21.95 182.552 22.3 180.952 22.3ZM180.952 17.5C181.892 17.5 182.642 17.2 183.202 16.6C183.762 16 184.042 15.27 184.042 14.41C184.042 13.55 183.762 12.82 183.202 12.22C182.642 11.62 181.892 11.32 180.952 11.32C180.012 11.32 179.252 11.62 178.672 12.22C178.092 12.82 177.802 13.55 177.802 14.41C177.802 15.27 178.092 16 178.672 16.6C179.252 17.2 180.012 17.5 180.952 17.5Z" fill="black"/>
<path d="M192.433 22.3C191.753 22.3 191.183 22.07 190.723 21.61C190.263 21.15 190.033 20.58 190.033 19.9C190.033 19.22 190.263 18.65 190.723 18.19C191.183 17.73 191.753 17.5 192.433 17.5C193.113 17.5 193.683 17.73 194.143 18.19C194.603 18.65 194.833 19.22 194.833 19.9C194.833 20.58 194.603 21.15 194.143 21.61C193.683 22.07 193.113 22.3 192.433 22.3Z" fill="black"/>
</svg>
